<svg width="173" height="136" viewBox="0 0 173 136" fill="none" xmlns="http://www.w3.org/2000/svg">
<g clip-path="url(#clip0_12_5)">
<path d="M173 68.1219C173.013 76.8014 170.88 85.4013 166.717 93.4487C166.707 93.4667 166.699 93.4827 166.689 93.5007V93.5026C163.891 98.8912 160.21 103.974 155.738 108.623C154.876 109.522 153.986 110.403 153.069 111.265C152.734 111.581 152.394 111.895 152.053 112.205C150.3 113.794 148.456 115.317 146.52 116.772C146.07 117.112 145.614 117.448 145.154 117.78C145.046 117.858 144.939 117.934 144.831 118.012C142.577 119.621 140.215 121.136 137.755 122.549C136.104 123.503 134.41 124.408 132.673 125.266C132.291 125.456 131.907 125.643 131.521 125.826C130.85 126.146 130.174 126.458 129.491 126.763C128.601 127.163 127.699 127.55 126.786 127.925C126.418 128.079 126.047 128.226 125.676 128.374C125.133 128.592 124.588 128.802 124.038 129.008C123.943 129.044 123.849 129.08 123.754 129.114C123.396 129.25 123.032 129.382 122.669 129.514C117.936 131.219 113.014 132.583 107.964 133.59C107.936 133.596 107.91 133.6 107.882 133.606C107.552 133.672 107.219 133.736 106.886 133.798C106.638 133.846 106.387 133.892 106.136 133.936C106.106 133.943 106.074 133.949 106.042 133.954C105.527 134.047 105.013 134.137 104.493 134.219C104.202 134.267 103.91 134.315 103.618 134.361C103.442 134.391 103.263 134.417 103.086 134.443C102.863 134.477 102.643 134.509 102.421 134.543C102.298 134.563 102.175 134.579 102.049 134.595C101.768 134.635 101.486 134.675 101.208 134.713C100.732 134.777 100.25 134.839 99.7718 134.895C99.4238 134.937 99.0783 134.977 98.7302 135.015C98.3208 135.061 97.9113 135.103 97.4993 135.143C97.3867 135.157 97.2741 135.167 97.1615 135.177C97.0156 135.191 96.8697 135.205 96.7239 135.219C96.4296 135.247 96.1352 135.273 95.8384 135.297C95.6848 135.311 95.5338 135.323 95.3803 135.335C95.0885 135.359 94.7968 135.381 94.5051 135.401C94.1289 135.429 93.7527 135.453 93.3739 135.477C92.9132 135.505 92.4552 135.531 91.992 135.553C91.6951 135.567 91.3982 135.581 91.0988 135.593C90.3362 135.625 89.5735 135.647 88.8058 135.663C88.4245 135.671 88.0406 135.677 87.6567 135.681H87.649C87.2677 135.685 86.8838 135.687 86.5 135.687C82.6098 135.688 78.7239 135.485 74.8685 135.079C72.0406 134.783 69.258 134.382 66.5205 133.876C66.4105 133.856 66.3004 133.836 66.1929 133.814C65.9166 133.764 65.6427 133.71 65.3689 133.656C65.1258 133.608 64.8852 133.558 64.6421 133.508C58.3763 132.234 52.3152 130.411 46.5743 128.073C46.5462 128.061 46.5155 128.049 46.4873 128.037C46.321 127.969 46.1572 127.903 45.9934 127.833C45.6325 127.685 45.2734 127.534 44.916 127.381C42.8814 126.507 40.8989 125.573 38.9685 124.578C38.472 124.325 37.9806 124.067 37.4944 123.805C37.3383 123.721 37.1847 123.637 37.0312 123.553C36.8699 123.465 36.7087 123.377 36.5501 123.289C36.1278 123.055 35.7081 122.819 35.2909 122.579C33.5635 121.588 31.8872 120.548 30.2622 119.459C24.5021 115.606 19.4122 111.181 15.1221 106.296C13.625 104.593 12.2277 102.835 10.9302 101.023C3.73969 90.9679 -0.0239586 79.639 -3.92847e-05 68.1219C-3.92847e-05 30.8074 38.7279 0.557251 86.5 0.557251C134.272 0.557251 173 30.8074 173 68.1219Z" fill="#AB292C"/>
<path opacity="0.2" d="M100.409 133.814C100.685 133.764 100.959 133.71 101.233 133.656C101.476 133.608 101.717 133.558 101.96 133.508C101.973 133.11 101.991 132.672 102.009 132.198C102.16 128.488 102.515 122.515 103.355 115.319C103.401 114.933 103.447 114.545 103.493 114.154C103.792 111.715 104.143 109.15 104.563 106.492C104.575 106.404 104.591 106.318 104.604 106.23C104.944 104.075 105.33 101.862 105.765 99.6074C106.07 98.0302 106.399 96.4357 106.753 94.8239C106.779 94.712 106.804 94.598 106.83 94.4861C106.932 94.0203 107.037 93.5566 107.145 93.0888C107.444 91.7875 107.764 90.4782 108.099 89.1689C109.279 84.5633 110.684 79.9297 112.36 75.422C114.063 70.7472 116.16 66.1656 118.638 61.7072C120.56 58.2438 122.849 54.9119 125.481 51.7464C125.52 51.7005 125.558 51.6565 125.596 51.6105C128.962 47.6506 132.808 44.2903 137.2 41.7776L136.289 40.8062C132.081 43.2149 128.222 46.4199 124.711 50.4211C124.693 50.4411 124.678 50.4591 124.66 50.4791C122.019 53.5374 119.715 56.7645 117.771 60.126C115.167 64.6225 112.971 69.2561 111.199 73.9928C109.52 78.3945 108.014 83.1633 106.682 88.2993C106.213 90.1084 105.766 91.9621 105.341 93.8604C105.269 94.1842 105.197 94.5081 105.126 94.8339C105.126 94.8379 105.123 94.8439 105.123 94.8479C105.013 95.3476 104.908 95.8474 104.801 96.3531C104.534 97.6264 104.284 98.8898 104.048 100.143C103.685 102.074 103.356 103.972 103.063 105.836C102.966 106.452 102.872 107.063 102.781 107.669C102.653 108.525 102.532 109.369 102.418 110.202C102.257 111.361 102.109 112.496 101.975 113.606L101.937 113.912C101.916 114.088 101.896 114.264 101.876 114.438C100.836 123.191 100.511 130.261 100.409 133.814Z" fill="black"/>
<path opacity="0.2" d="M120.028 128.073C120.056 128.061 120.087 128.049 120.115 128.037C120.642 127.823 121.164 127.605 121.686 127.381C121.858 125.786 122.088 124.033 122.39 122.19C122.454 121.81 122.518 121.424 122.589 121.036C122.625 120.828 122.664 120.618 122.702 120.407C123.004 118.783 123.362 117.108 123.792 115.425C125.54 108.557 128.442 101.536 133.261 97.2027C133.52 96.9688 133.783 96.7449 134.057 96.527C134.736 95.9762 135.473 95.4714 136.261 95.0178L135.349 94.0483C134.25 94.6836 133.238 95.4064 132.33 96.2052C132.01 96.4831 131.698 96.7723 131.393 97.0728C126.958 101.432 124.189 107.887 122.464 114.278C122.014 115.945 121.635 117.61 121.312 119.231C121.231 119.655 121.152 120.075 121.077 120.491C120.578 123.237 120.248 125.832 120.028 128.073Z" fill="black"/>
<path opacity="0.2" d="M145.806 41.7497C150.058 41.7497 153.506 39.0569 153.506 35.7352C153.506 32.4134 150.058 29.7206 145.806 29.7206C141.553 29.7206 138.106 32.4134 138.106 35.7352C138.106 39.0569 141.553 41.7497 145.806 41.7497Z" fill="black"/>
<path opacity="0.2" d="M143.326 93.5245C147.579 93.5245 151.026 90.8317 151.026 87.5099C151.026 84.1882 147.579 81.4954 143.326 81.4954C139.073 81.4954 135.626 84.1882 135.626 87.5099C135.626 90.8317 139.073 93.5245 143.326 93.5245Z" fill="black"/>
<path opacity="0.2" d="M115.236 45.8379C116.869 53.0336 113.264 59.5492 113.264 59.5492C113.264 59.5492 107.012 54.3982 105.379 47.2025C103.746 40.0068 107.351 33.4912 107.351 33.4912C107.351 33.4912 113.603 38.6422 115.236 45.8379Z" fill="black"/>
<path opacity="0.2" d="M140.827 62.9189C132.04 65.4286 123.21 63.8181 123.21 63.8181C123.21 63.8181 128.627 58.1385 137.414 55.6288C146.201 53.1191 155.03 54.7296 155.03 54.7296C155.03 54.7296 149.614 60.4092 140.827 62.9189Z" fill="black"/>
<path opacity="0.2" d="M142.317 108.767C136.158 110.526 129.96 109.379 129.96 109.379C129.96 109.379 133.748 105.379 139.907 103.62C146.066 101.861 152.264 103.009 152.264 103.009C152.264 103.009 148.476 107.008 142.317 108.767Z" fill="black"/>
<path d="M112.593 107.755L112.906 107.881C112.875 108.141 112.801 108.301 112.593 107.755Z" fill="#2F2E41"/>
<path d="M113.005 107.839C113.008 107.867 113.013 107.897 113.016 107.925L112.906 107.881C112.908 107.855 112.911 107.827 112.916 107.799C112.941 107.449 112.911 107.036 113.005 107.839Z" fill="#2F2E41"/>
<path d="M79.765 98.2761C102.974 98.2761 121.789 83.58 121.789 65.4515C121.789 47.3229 102.974 32.6268 79.765 32.6268C56.5558 32.6268 37.7411 47.3229 37.7411 65.4515C37.7411 83.58 56.5558 98.2761 79.765 98.2761Z" fill="black"/>
<path d="M83.2244 96.9383C97.2798 96.9383 108.674 88.0383 108.674 77.0598C108.674 66.0812 97.2798 57.1813 83.2244 57.1813C69.169 57.1813 57.7748 66.0812 57.7748 77.0598C57.7748 88.0383 69.169 96.9383 83.2244 96.9383Z" fill="#D0CDE1"/>
<path d="M141.335 115.159L141.305 115.165L135.385 116.275L123.06 118.586L121.379 118.901L102.636 122.414L101.044 122.713L55.5699 131.237C52.4958 130.318 49.4923 129.262 46.5744 128.073C46.5462 128.061 46.5155 128.049 46.4873 128.037C46.321 127.969 46.1572 127.903 45.9934 127.833C45.6326 127.685 45.2734 127.534 44.916 127.381C42.8815 126.507 40.899 125.573 38.9685 124.578C38.472 124.325 37.9807 124.067 37.4944 123.805C37.3383 123.721 37.1848 123.637 37.0312 123.553C36.87 123.465 36.7088 123.377 36.5501 123.289C36.1278 123.055 35.7081 122.819 35.291 122.579C39.7081 116.309 50.2263 112.141 60.7445 109.86C68.683 108.137 70.4284 102.474 70.2774 97.4346C70.239 96.2851 70.1143 95.1384 69.9038 94.0004C69.5831 92.1891 69.073 90.4014 68.3785 88.6552L93.8295 89.3188L96.4552 94.0443C96.3833 94.5634 96.3602 95.0858 96.3861 95.6075C96.5857 99.4835 99.649 101.99 103.429 103.607C103.92 103.817 104.424 104.013 104.936 104.195C111.135 106.396 118.431 106.546 118.431 106.546C120.653 106.354 122.897 106.387 125.108 106.644C125.645 106.708 126.167 106.784 126.674 106.874C129.632 107.39 132.427 108.367 134.891 109.746C135.833 110.269 136.723 110.846 137.555 111.471C139.035 112.553 140.308 113.795 141.335 115.159Z" fill="#D0CDE1"/>
<path d="M145.154 117.78C145.046 117.858 144.939 117.934 144.831 118.012C142.577 119.621 140.215 121.136 137.755 122.549C136.104 123.503 134.41 124.408 132.673 125.266C132.291 125.456 131.907 125.642 131.521 125.826C130.85 126.146 130.174 126.458 129.492 126.763C128.601 127.163 127.699 127.55 126.786 127.925C126.418 128.079 126.047 128.226 125.676 128.374C125.133 128.592 124.588 128.802 124.038 129.008C123.943 129.044 123.849 129.08 123.754 129.114L122.671 128.412L135.385 116.275L137.942 113.834C137.942 113.834 138.963 113.834 141.305 115.165C142.599 115.918 143.822 116.742 144.964 117.632C145.026 117.682 145.09 117.73 145.154 117.78Z" fill="#D0CDE1"/>
<path d="M144.975 117.644C144.94 117.77 144.892 117.893 144.831 118.012C142.577 119.621 140.215 121.136 137.755 122.549C135.621 123.15 133.407 123.561 131.155 123.775C131.155 123.775 131.347 124.526 131.521 125.826C130.85 126.146 130.174 126.458 129.492 126.763C128.601 127.163 127.699 127.55 126.786 127.925C126.418 128.079 126.047 128.227 125.676 128.374C125.133 128.592 124.588 128.802 124.038 129.008C123.943 129.044 123.849 129.08 123.754 129.114C123.396 129.25 123.032 129.382 122.669 129.514C117.936 131.219 113.014 132.583 107.964 133.59C107.936 133.596 107.91 133.6 107.882 133.606C107.552 133.672 107.219 133.736 106.886 133.798C106.638 133.846 106.387 133.892 106.137 133.936C106.106 133.943 106.074 133.949 106.042 133.954C105.527 134.047 105.013 134.137 104.494 134.219C104.202 134.267 103.91 134.315 103.618 134.361C103.442 134.391 103.263 134.417 103.086 134.443C102.863 134.477 102.643 134.509 102.421 134.543C102.298 134.563 102.175 134.579 102.05 134.595C101.768 134.635 101.487 134.675 101.208 134.713C100.732 134.777 100.25 134.839 99.7719 134.895C99.4238 134.937 99.0783 134.977 98.7303 135.015C98.3208 135.061 97.9113 135.103 97.4993 135.143C97.3867 135.157 97.2741 135.167 97.1615 135.177C97.0156 135.191 96.8698 135.205 96.7239 135.219C96.4296 135.247 96.1353 135.273 95.8384 135.297C95.6849 135.311 95.5339 135.323 95.3803 135.335C95.0886 135.359 94.7968 135.381 94.5051 135.401C94.1289 135.429 93.7527 135.453 93.3739 135.477C92.9133 135.505 92.4552 135.531 91.992 135.553C91.6951 135.567 91.3983 135.581 91.0988 135.593C90.3362 135.625 89.5736 135.647 88.8058 135.663C88.4245 135.671 88.0406 135.677 87.6568 135.681H87.6491C87.2678 135.685 86.8839 135.687 86.5 135.687C82.6098 135.688 78.7239 135.485 74.8686 135.079C72.0407 134.783 69.258 134.382 66.5205 133.876C66.4105 133.856 66.3005 133.836 66.193 133.814C65.9166 133.764 65.6428 133.71 65.3689 133.656C65.1258 133.608 64.8852 133.558 64.6421 133.508C58.3764 132.234 52.3152 130.411 46.5744 128.073C46.5462 128.061 46.5155 128.049 46.4873 128.037C46.321 127.969 46.1572 127.903 45.9934 127.833C60.0407 125.276 82.239 121.244 101.502 117.79C102.042 117.694 102.578 117.598 103.112 117.502C110.226 116.227 116.89 115.039 122.528 114.046C123.112 113.944 123.683 113.844 124.243 113.746C130.3 112.683 135.004 111.875 137.555 111.471C138.243 111.349 138.939 111.253 139.639 111.185L144.964 117.632L144.975 117.644Z" fill="black"/>
<path d="M41.3176 51.4836C48.231 51.4836 53.8354 47.106 53.8354 41.706C53.8354 36.306 48.231 31.9285 41.3176 31.9285C34.4042 31.9285 28.7998 36.306 28.7998 41.706C28.7998 47.106 34.4042 51.4836 41.3176 51.4836Z" fill="black"/>
<path d="M118.212 48.69C125.126 48.69 130.73 44.3124 130.73 38.9124C130.73 33.5124 125.126 29.1349 118.212 29.1349C111.299 29.1349 105.695 33.5124 105.695 38.9124C105.695 44.3124 111.299 48.69 118.212 48.69Z" fill="black"/>
<path d="M104.801 34.722C104.801 32.3105 105.942 29.9841 108.005 28.19C110.068 26.3959 112.907 25.2606 115.977 25.0023C114.229 24.8531 112.46 24.9933 110.786 25.4138C109.112 25.8343 107.57 26.5255 106.261 27.4425C104.952 28.3596 103.904 29.4818 103.187 30.736C102.471 31.9903 102.1 33.3484 102.1 34.722C102.1 36.0956 102.471 37.4538 103.187 38.708C103.904 39.9623 104.952 41.0845 106.261 42.0015C107.57 42.9185 109.112 43.6098 110.786 44.0302C112.46 44.4507 114.229 44.5909 115.977 44.4418C112.907 44.1834 110.068 43.0481 108.005 41.254C105.942 39.4599 104.801 37.1336 104.801 34.722Z" fill="black"/>
<path d="M27.3309 49.6149C25.1705 47.8921 23.9014 45.6065 23.7674 43.1973C23.6335 40.788 24.6442 38.425 26.6053 36.5625C25.223 37.4116 24.0852 38.4786 23.2662 39.6941C22.4471 40.9096 21.9651 42.2463 21.8516 43.617C21.7381 44.9877 21.9956 46.3617 22.6073 47.6495C23.2191 48.9373 24.1713 50.11 25.4021 51.0911C26.6328 52.0722 28.1144 52.8398 29.7502 53.3438C31.3861 53.8477 33.1396 54.0769 34.8964 54.0162C36.6532 53.9555 38.3739 53.6063 39.9465 52.9915C41.519 52.3767 42.908 51.5099 44.023 50.4478C41.599 51.9413 38.5538 52.6824 35.4727 52.5286C32.3916 52.3749 29.492 51.3372 27.3309 49.6149Z" fill="black"/>
<path d="M79.765 50.0868C64.9506 50.0868 52.9412 55.5587 52.9412 62.3087C52.9412 65.329 55.3552 68.0893 59.3399 70.2217L64.5038 67.2992L63.0995 71.8777C63.6822 72.0886 64.2772 72.2927 64.8977 72.4814L72.612 65.4515V74.0877C74.9774 74.3838 77.3694 74.5319 79.765 74.5307C94.5793 74.5307 106.589 69.0587 106.589 62.3087C106.589 55.5587 94.5793 50.0868 79.765 50.0868Z" fill="black"/>
<path d="M105.695 38.9125C105.695 38.9125 103.751 45.8964 115.899 48.69L105.695 38.9125Z" fill="black"/>
<path d="M52.9412 40.1836C52.9412 40.1836 57.4118 47.9916 44 51.4836L52.9412 40.1836Z" fill="black"/>
<path d="M59.5712 84.864C60.6991 84.6174 60.9991 82.7033 60.2413 80.5889C59.4835 78.4745 57.9548 76.9604 56.8269 77.207C55.6989 77.4536 55.3989 79.3677 56.1567 81.4821C56.9146 83.5965 58.4432 85.1106 59.5712 84.864Z" fill="#D0CDE1"/>
<path d="M111.215 77.8242C111.388 75.6327 110.58 73.8105 109.411 73.7542C108.242 73.698 107.154 75.429 106.981 77.6206C106.808 79.8121 107.616 81.6343 108.785 81.6906C109.954 81.7468 111.042 80.0158 111.215 77.8242Z" fill="#D0CDE1"/>
</g>
<defs>
<clipPath id="clip0_12_5">
<rect width="173" height="135.129" fill="white" transform="translate(0 0.557251)"/>
</clipPath>
</defs>
</svg>
