<svg width="24" height="24" viewBox="0 0 24 24" fill="none" xmlns="http://www.w3.org/2000/svg">
<g clip-path="url(#clip0_13_79)">
<path d="M12.0053 6.60927C8.5982 6.60927 5.84999 9.01396 5.84999 11.9952C5.84999 14.9765 8.5982 17.3811 12.0053 17.3811C15.4125 17.3811 18.1607 14.9765 18.1607 11.9952C18.1607 9.01396 15.4125 6.60927 12.0053 6.60927ZM12.0053 15.4968C9.80355 15.4968 8.00356 13.9265 8.00356 11.9952C8.00356 10.064 9.7982 8.49365 12.0053 8.49365C14.2125 8.49365 16.0071 10.064 16.0071 11.9952C16.0071 13.9265 14.2071 15.4968 12.0053 15.4968ZM19.8482 6.38896C19.8482 7.0874 19.2053 7.64521 18.4125 7.64521C17.6143 7.64521 16.9768 7.08271 16.9768 6.38896C16.9768 5.69521 17.6196 5.13271 18.4125 5.13271C19.2053 5.13271 19.8482 5.69521 19.8482 6.38896ZM23.925 7.66396C23.8339 5.98115 23.3946 4.49053 21.9857 3.2624C20.5821 2.03428 18.8785 1.6499 16.9553 1.56553C14.9732 1.46709 9.03213 1.46709 7.04998 1.56553C5.13213 1.64521 3.42856 2.02959 2.01963 3.25771C0.610704 4.48584 0.176775 5.97646 0.0803466 7.65927C-0.0321533 9.39365 -0.0321533 14.5921 0.0803466 16.3265C0.171418 18.0093 0.610704 19.4999 2.01963 20.728C3.42856 21.9561 5.12677 22.3405 7.04998 22.4249C9.03213 22.5233 14.9732 22.5233 16.9553 22.4249C18.8785 22.3452 20.5821 21.9608 21.9857 20.728C23.3893 19.4999 23.8285 18.0093 23.925 16.3265C24.0375 14.5921 24.0375 9.39834 23.925 7.66396ZM21.3643 18.1874C20.9464 19.1061 20.1375 19.814 19.0821 20.1843C17.5018 20.7327 13.7518 20.6061 12.0053 20.6061C10.2589 20.6061 6.50356 20.728 4.92856 20.1843C3.87856 19.8186 3.06963 19.1108 2.64642 18.1874C2.01963 16.8046 2.16427 13.5233 2.16427 11.9952C2.16427 10.4671 2.02499 7.18115 2.64642 5.80303C3.06427 4.88428 3.8732 4.17646 4.92856 3.80615C6.50891 3.25771 10.2589 3.38428 12.0053 3.38428C13.7518 3.38428 17.5071 3.2624 19.0821 3.80615C20.1321 4.17178 20.941 4.87959 21.3643 5.80303C21.991 7.18584 21.8464 10.4671 21.8464 11.9952C21.8464 13.5233 21.991 16.8093 21.3643 18.1874Z" fill="white"/>
</g>
<defs>
<clipPath id="clip0_13_79">
<rect width="24" height="24" fill="white"/>
</clipPath>
</defs>
</svg>
