<svg width="24" height="24" viewBox="0 0 24 24" fill="none" xmlns="http://www.w3.org/2000/svg">
<path d="M22.9023 5.81639C22.6406 4.7078 21.8695 3.8347 20.8905 3.53841C19.1159 3 12 3 12 3C12 3 4.88418 3 3.10956 3.53841C2.13052 3.83475 1.35943 4.7078 1.09772 5.81639C0.622223 7.82578 0.622223 12.0182 0.622223 12.0182C0.622223 12.0182 0.622223 16.2106 1.09772 18.22C1.35943 19.3286 2.13052 20.1653 3.10956 20.4616C4.88418 21 12 21 12 21C12 21 19.1159 21 20.8905 20.4616C21.8695 20.1653 22.6406 19.3286 22.9023 18.22C23.3778 16.2106 23.3778 12.0182 23.3778 12.0182C23.3778 12.0182 23.3778 7.82578 22.9023 5.81639ZM9.67273 15.8246V8.2118L15.6202 12.0183L9.67273 15.8246Z" fill="white"/>
</svg>
